<?xml version="1.0" encoding="UTF-8" standalone="no"?>
<svg
   xmlns:dc="http://purl.org/dc/elements/1.1/"
   xmlns:cc="http://creativecommons.org/ns#"
   xmlns:rdf="http://www.w3.org/1999/02/22-rdf-syntax-ns#"
   xmlns:svg="http://www.w3.org/2000/svg"
   xmlns="http://www.w3.org/2000/svg"
   viewBox="0 0 57.333332 61.333332"
   height="61.333332"
   width="57.333332"
   xml:space="preserve"
   id="svg2"
   version="1.1"><metadata
     id="metadata8"><rdf:RDF><cc:Work
         rdf:about=""><dc:format>image/svg+xml</dc:format><dc:type
           rdf:resource="http://purl.org/dc/dcmitype/StillImage" /></cc:Work></rdf:RDF></metadata><defs
     id="defs6" /><g
     transform="matrix(1.3333333,0,0,-1.3333333,0,61.333333)"
     id="g10"><g
       transform="scale(0.1)"
       id="g12"><path
         id="path14"
         style="fill:#100f0d;fill-opacity:1;fill-rule:nonzero;stroke:none"
         d="m 223.777,19.8047 c 10.61,5.8594 23.403,13.9258 37.246,24.3828 V 169.512 l -37.246,24.785 V 19.8047" /><path
         id="path16"
         style="fill:#100f0d;fill-opacity:1;fill-rule:nonzero;stroke:none"
         d="m 223.777,281.063 37.246,-24.797 v 63.328 c -12.39,0.582 -24.812,0.91 -37.246,1.011 v -39.542" /><path
         id="path18"
         style="fill:#100f0d;fill-opacity:1;fill-rule:nonzero;stroke:none"
         d="m 335.559,313.008 c -12.383,1.594 -24.797,2.883 -37.27,3.969 v -85.508 l 37.27,-24.809 v 106.348" /><path
         id="path20"
         style="fill:#100f0d;fill-opacity:1;fill-rule:nonzero;stroke:none"
         d="M 298.289,144.707 V 76.543 c 12.531,12.4609 25.149,26.875 37.27,43.262 v 0.117 l -37.27,24.785" /><path
         id="path22"
         style="fill:#100f0d;fill-opacity:1;fill-rule:nonzero;stroke:none"
         d="m 335.559,119.805 c 0.015,0.019 0.027,0.039 0.046,0.097 l -0.046,0.02 v -0.117" /><path
         id="path24"
         style="fill:#100f0d;fill-opacity:1;fill-rule:nonzero;stroke:none"
         d="m 372.773,307.395 v -125.52 l 0.11,-0.059 c 16.25,33.653 29.363,72.934 36.734,118.618 l -1.265,0.25 c -11.782,2.468 -23.657,4.675 -35.579,6.711" /><path
         id="path26"
         style="fill:#100f0d;fill-opacity:1;fill-rule:nonzero;stroke:none"
         d="m 261.047,256.238 v -86.746 l 37.242,-24.785 v 86.754 l -37.242,24.777" /><path
         id="path28"
         style="fill:#100f0d;fill-opacity:1;fill-rule:nonzero;stroke:none"
         d="m 335.559,206.66 v -86.738 l 0.046,-0.02 c 13.321,18.008 25.989,38.536 37.168,61.719 v 0.242 l -37.214,24.797" /><path
         id="path30"
         style="fill:#100f0d;fill-opacity:1;fill-rule:nonzero;stroke:none"
         d="m 372.773,181.621 c 0.047,0.059 0.079,0.137 0.11,0.195 l -0.11,0.059 v -0.254" /><path
         id="path32"
         style="fill:#100f0d;fill-opacity:1;fill-rule:nonzero;stroke:none"
         d="m 142.039,163.848 c 11.004,3.047 20.672,9.179 28.074,17.461 -4.062,1.464 -8.804,2.929 -14.285,4.14 -4.047,-9.004 -9.148,-16.191 -13.789,-21.601" /><path
         id="path34"
         style="fill:#100f0d;fill-opacity:1;fill-rule:nonzero;stroke:none"
         d="m 82.9297,181.289 c 7.4023,-8.281 17.0973,-14.434 28.1093,-17.461 -4.637,5.43 -9.75,12.617 -13.8085,21.641 -5.4922,-1.231 -10.2266,-2.696 -14.3008,-4.18" /><path
         id="path36"
         style="fill:#100f0d;fill-opacity:1;fill-rule:nonzero;stroke:none"
         d="m 121.121,271.648 c -4.047,-4.445 -8.785,-10.718 -12.738,-18.64 3.988,-0.528 8.226,-0.899 12.738,-1.059 v 19.699" /><path
         id="path38"
         style="fill:#100f0d;fill-opacity:1;fill-rule:nonzero;stroke:none"
         d="m 159.59,195.605 c 6.719,-1.582 12.449,-3.457 17.121,-5.312 4.379,7.324 7.238,15.605 8.059,24.531 h -21.727 c -0.445,-6.953 -1.672,-13.379 -3.453,-19.219" /><path
         id="path40"
         style="fill:#100f0d;fill-opacity:1;fill-rule:nonzero;stroke:none"
         d="m 111.035,276.563 c -11.012,-3.028 -20.6991,-9.192 -28.1092,-17.469 4.082,-1.473 8.8086,-2.934 14.3008,-4.153 4.0584,9.004 9.1684,16.204 13.8084,21.622" /><path
         id="path42"
         style="fill:#100f0d;fill-opacity:1;fill-rule:nonzero;stroke:none"
         d="m 170.105,259.094 c -7.39,8.269 -17.07,14.418 -28.07,17.449 4.641,-5.422 9.762,-12.621 13.801,-21.602 5.48,1.219 10.219,2.692 14.269,4.153" /><path
         id="path44"
         style="fill:#100f0d;fill-opacity:1;fill-rule:nonzero;stroke:none"
         d="m 163.035,225.566 h 21.731 c -0.821,8.922 -3.668,17.223 -8.055,24.532 -4.676,-1.84 -10.395,-3.719 -17.125,-5.301 1.781,-5.852 3.012,-12.274 3.449,-19.231" /><path
         id="path46"
         style="fill:#100f0d;fill-opacity:1;fill-rule:nonzero;stroke:none"
         d="m 131.875,168.691 c 4.059,4.454 8.848,10.723 12.82,18.692 -4.011,0.527 -8.289,0.898 -12.82,1.074 v -19.766" /><path
         id="path48"
         style="fill:#100f0d;fill-opacity:1;fill-rule:nonzero;stroke:none"
         d="m 121.121,214.824 h -20.332 c 0.477,-6.23 1.695,-11.953 3.406,-17.168 5.2,0.801 10.848,1.328 16.926,1.543 v 15.625" /><path
         id="path50"
         style="fill:#100f0d;fill-opacity:1;fill-rule:nonzero;stroke:none"
         d="m 131.875,199.199 c 6.098,-0.215 11.793,-0.742 17.012,-1.543 1.699,5.215 2.929,10.938 3.386,17.157 h -20.398 v -15.614" /><path
         id="path52"
         style="fill:#100f0d;fill-opacity:1;fill-rule:nonzero;stroke:none"
         d="m 144.734,253.008 c -3.968,8.008 -8.777,14.32 -12.859,18.75 v -19.801 c 4.551,0.152 8.852,0.52 12.859,1.051" /><path
         id="path54"
         style="fill:#100f0d;fill-opacity:1;fill-rule:nonzero;stroke:none"
         d="m 152.273,225.566 c -0.457,6.243 -1.668,11.969 -3.367,17.176 -5.23,-0.785 -10.922,-1.336 -17.031,-1.554 v -15.622 h 20.398" /><path
         id="path56"
         style="fill:#100f0d;fill-opacity:1;fill-rule:nonzero;stroke:none"
         d="m 108.379,187.383 c 3.961,-7.891 8.691,-14.16 12.738,-18.633 v 19.707 c -4.508,-0.195 -8.75,-0.547 -12.738,-1.074" /><path
         id="path58"
         style="fill:#100f0d;fill-opacity:1;fill-rule:nonzero;stroke:none"
         d="m 93.4766,244.797 c -6.75,1.582 -12.4688,3.461 -17.168,5.297 -4.3516,-7.313 -7.2109,-15.606 -8.043,-24.528 h 21.7657 c 0.4375,6.957 1.6679,13.379 3.4453,19.231" /><path
         id="path60"
         style="fill:#100f0d;fill-opacity:1;fill-rule:nonzero;stroke:none"
         d="m 121.121,241.191 c -6.078,0.211 -11.726,0.762 -16.926,1.547 -1.711,-5.211 -2.929,-10.925 -3.406,-17.172 h 20.332 v 15.625" /><path
         id="path62"
         style="fill:#100f0d;fill-opacity:1;fill-rule:nonzero;stroke:none"
         d="M 90.0313,214.824 H 68.2656 c 0.8321,-8.926 3.6836,-17.207 8.043,-24.531 4.7031,1.855 10.418,3.73 17.168,5.332 -1.7774,5.82 -3.0078,12.246 -3.4453,19.199" /><path
         id="path64"
         style="fill:#100f0d;fill-opacity:1;fill-rule:nonzero;stroke:none"
         d="m 126.504,289.465 c 38.199,0 69.281,-31.07 69.281,-69.27 0,-38.164 -31.082,-69.257 -69.281,-69.257 -38.1876,0 -69.2579,31.093 -69.2579,69.257 0,38.2 31.0703,69.27 69.2579,69.27 M 20.375,300.359 C 47.7227,131.348 153.535,48.8672 206.234,19.8047 V 320.602 C 143.945,320.023 81.8867,313.355 21.6641,300.645 l -1.2891,-0.286" /><path
         id="path66"
         style="fill:#100f0d;fill-opacity:1;fill-rule:nonzero;stroke:none"
         d="m 364.707,343.098 c -48.445,9.199 -104.109,12.019 -149.687,12.019 h -0.04 c -45.582,0 -101.253,-2.82 -149.6831,-12.019 -1.8281,-0.371 -3.4531,1.297 -2.4414,3.242 l 31.8711,70.355 c 0.3203,0.649 20.9104,10.84 20.9104,10.84 26.172,5.504 69.25,3.078 99.312,-7.98 h 0.11 c 30.058,11.058 73.125,13.484 99.296,7.98 0,0 20.586,-10.191 20.911,-10.84 l 31.851,-70.355 c 1.028,-1.945 -0.586,-3.613 -2.41,-3.242 m 43.516,86.476 -0.137,0.074 C 345.801,442.934 281.223,449.996 215,449.996 c -66.324,0 -130.9805,-7.082 -193.3242,-20.422 l -0.2695,-0.066 c -4.3985,-1.09 -7.6602,-5.059 -7.6602,-9.809 l 0.0195,-34.941 c 0,-22.953 1.3907,-44.613 3.8985,-65.153 64.7422,13.7 131.1369,20.54 197.5119,20.54 66.301,0 132.59,-6.84 197.179,-20.477 2.481,20.5 3.883,42.16 3.883,65.09 l 0.012,34.941 c 0,4.867 -3.445,8.938 -8.027,9.875" /><path
         id="path68"
         style="fill:#100f0d;fill-opacity:1;fill-rule:nonzero;stroke:none"
         d="m 306.063,415.469 13.402,-35.879 c -31.223,4.289 -57.094,2.34 -95.285,-10.172 v -3.359 c 36.093,1.359 81.738,3.371 118.633,-4.559 l -20.11,46.25 -16.64,7.719" /><path
         id="path70"
         style="fill:#100f0d;fill-opacity:1;fill-rule:nonzero;stroke:none"
         d="m 110.105,379.59 13.403,35.879 -16.633,-7.731 -20.1055,-46.25 c 36.8785,7.942 82.5275,5.934 118.6055,4.563 v 3.359 c -38.18,12.52 -64.059,14.473 -95.27,10.18" /></g></g></svg>